<svg width="129" height="32" viewBox="0 0 129 32" fill="none" xmlns="http://www.w3.org/2000/svg">
<g clip-path="url(#clip0_231_37778)">
<g clip-path="url(#clip1_231_37778)">
<mask id="mask0_231_37778" style="mask-type:luminance" maskUnits="userSpaceOnUse" x="0" y="4" width="129" height="24">
<path d="M128.727 4H0V28H128.727V4Z" fill="white"/>
</mask>
<g mask="url(#mask0_231_37778)">
<mask id="mask1_231_37778" style="mask-type:luminance" maskUnits="userSpaceOnUse" x="0" y="4" width="129" height="24">
<path d="M128.727 4H0V28H128.727V4Z" fill="white"/>
</mask>
<g mask="url(#mask1_231_37778)">
<path d="M34.4891 11.8303C34.6394 11.8303 34.8285 11.8497 34.9667 11.8691C35.2503 11.8788 35.5218 11.7746 35.7303 11.5758C35.9388 11.3746 36.06 11.0933 36.06 10.8024C36.06 10.2642 35.6721 9.80607 35.1655 9.73576C34.7921 9.67031 34.4018 9.63879 33.9727 9.63879C32.9449 9.63879 32.1715 9.91273 31.6091 10.4776C31.0394 11.0473 30.7509 11.9152 30.7509 13.0546V13.6994H30.4527C29.854 13.6994 29.3643 14.1867 29.3643 14.7879C29.3643 15.3891 29.8515 15.857 30.4527 15.857H30.7509V22.8509C30.7509 23.5467 31.3158 24.1115 32.0115 24.1115C32.7073 24.1115 33.2915 23.5467 33.2915 22.8509V15.857H34.9546C35.5533 15.857 36.0406 15.377 36.0406 14.7879C36.0406 14.1988 35.563 13.7188 34.9546 13.7188H33.2527V13.2679C33.2527 12.2909 33.6479 11.8352 34.494 11.8352" fill="#FEFDFC"/>
<path d="M38.7847 18.8048C38.7847 16.9939 40.026 15.6775 41.7375 15.6775C43.449 15.6775 44.7484 17.0375 44.7484 18.8436V18.8824C44.7484 20.6836 43.4975 21.9902 41.7763 21.9902C40.0551 21.9902 38.7847 20.6084 38.7847 18.8436V18.8048ZM41.7763 13.4254C38.6732 13.4254 36.2441 15.806 36.2441 18.8412V18.8799C36.2441 21.886 38.6587 24.2399 41.7375 24.2399C44.8163 24.2399 47.289 21.869 47.289 18.8412V18.8024C47.289 15.7866 44.8672 13.423 41.7763 13.423" fill="#FEFDFC"/>
<path d="M56.9331 13.5225C56.2155 13.5225 55.6531 14.0849 55.6531 14.8025V19.4788C55.6531 20.9576 54.8167 21.874 53.4688 21.874C52.121 21.874 51.401 21.0376 51.401 19.5176V14.8025C51.401 14.0849 50.8385 13.5225 50.121 13.5225C49.4034 13.5225 48.8604 14.097 48.8604 14.8025V20.2085C48.8604 22.6837 50.2882 24.2206 52.584 24.2206C53.8373 24.2206 54.8434 23.7067 55.6531 22.6522V22.8437C55.6531 23.5394 56.2276 24.1043 56.9331 24.1043C57.6385 24.1043 58.2131 23.5394 58.2131 22.8437V14.8025C58.2131 14.097 57.6385 13.5225 56.9331 13.5225Z" fill="#FEFDFC"/>
<path d="M66.0452 13.4254C64.7992 13.4254 63.7907 13.9345 62.9762 14.9794V14.8024C62.9762 14.0848 62.4137 13.5224 61.6962 13.5224C60.9786 13.5224 60.4355 14.0848 60.4355 14.8024V22.846C60.4355 23.5539 60.9883 24.1066 61.6962 24.1066C62.404 24.1066 62.9762 23.5539 62.9762 22.846V18.1697C62.9762 16.703 63.8343 15.7551 65.1604 15.7551C66.4865 15.7551 67.2283 16.6206 67.2283 18.1309V22.846C67.2283 23.5539 67.7907 24.1066 68.5083 24.1066C69.2259 24.1066 69.7689 23.5636 69.7689 22.846V17.4206C69.7689 14.9575 68.341 13.4278 66.0452 13.4278" fill="#FEFDFC"/>
<path d="M79.5951 18.8049V18.8436C79.5951 20.3903 78.5333 21.9903 76.7563 21.9903C75.1491 21.9903 73.937 20.6376 73.937 18.8436V18.8049C73.937 16.9527 75.0957 15.6582 76.7563 15.6582C78.417 15.6582 79.5951 17.0109 79.5951 18.8049ZM80.817 9.65576C80.1091 9.65576 79.5564 10.2085 79.5564 10.9164V15.0206C78.6545 13.9491 77.5515 13.4279 76.1988 13.4279C73.8036 13.4279 71.377 15.2752 71.377 18.8073V18.8461C71.377 20.4509 71.8933 21.823 72.8703 22.8194C73.7454 23.7115 74.96 24.2255 76.1988 24.2255C77.5588 24.2255 78.6594 23.6727 79.5564 22.5333V22.8485C79.5564 23.5564 80.1188 24.1091 80.8364 24.1091C81.5539 24.1091 82.097 23.5564 82.097 22.8485V10.9164C82.097 10.2085 81.5345 9.65576 80.817 9.65576Z" fill="#FEFDFC"/>
<path d="M86.3224 18.0048C86.5672 16.5042 87.5418 15.5418 88.8363 15.5418C90.4145 15.5418 91.1369 16.7927 91.2945 18.0048H86.3224ZM88.8557 13.4254C85.966 13.4254 83.7842 15.7454 83.7842 18.8242V18.863C83.7842 21.9806 86.0218 24.2424 89.1054 24.2424C90.5818 24.2424 91.8012 23.7939 92.8363 22.8654C93.0545 22.6472 93.1757 22.3684 93.1757 22.0775C93.1757 21.4787 92.7321 21.0278 92.1454 21.0278C91.8448 21.0278 91.6702 21.1175 91.4811 21.263C90.7781 21.8424 90.0121 22.1236 89.1442 22.1236C87.6775 22.1236 86.6157 21.2194 86.3442 19.7575H92.589C93.263 19.7575 93.7915 19.2218 93.7915 18.5357C93.7915 16.0581 92.0605 13.4278 88.8557 13.4278" fill="#FEFDFC"/>
<path d="M103.127 13.5224C102.584 13.5224 102.182 13.8158 101.932 14.3976L99.3745 20.9188L96.8557 14.4364C96.6085 13.8206 96.1988 13.5224 95.6024 13.5224C94.9309 13.5224 94.3418 14.0946 94.3418 14.7443C94.3418 14.9455 94.4048 15.1273 94.4582 15.2849L97.8715 23.1176C98.1866 23.8352 98.6642 24.2012 99.2969 24.2012H99.4133C100.027 24.2012 100.519 23.8279 100.839 23.1176L104.223 15.3479C104.276 15.2388 104.368 14.9891 104.368 14.7418C104.368 14.0558 103.823 13.52 103.127 13.52" fill="#FEFDFC"/>
<path d="M107.438 18.0048C107.682 16.5042 108.659 15.5418 109.952 15.5418C111.53 15.5418 112.252 16.7927 112.41 18.0048H107.438ZM109.971 13.4254C107.081 13.4254 104.899 15.7454 104.899 18.8242V18.863C104.899 21.9806 107.137 24.2424 110.221 24.2424C111.697 24.2424 112.916 23.7939 113.952 22.8654C114.17 22.6472 114.291 22.3684 114.291 22.0775C114.291 21.4787 113.847 21.0278 113.261 21.0278C112.96 21.0278 112.785 21.1175 112.596 21.263C111.893 21.8424 111.127 22.1236 110.259 22.1236C108.793 22.1236 107.731 21.2194 107.459 19.7575H113.704C114.378 19.7575 114.907 19.2218 114.907 18.5357C114.907 16.0581 113.176 13.4278 109.971 13.4278" fill="#FEFDFC"/>
<path d="M121.604 13.5031C120.707 13.5031 119.759 14.2376 119.151 15.3746V14.8024C119.151 14.0849 118.589 13.5224 117.871 13.5224C117.153 13.5224 116.61 14.0849 116.61 14.8024V22.8461C116.61 23.554 117.163 24.1067 117.871 24.1067C118.579 24.1067 119.151 23.5418 119.151 22.8461V19.8449C119.151 17.6606 120.111 16.2885 121.854 15.9855C122.467 15.8715 122.865 15.394 122.865 14.7661C122.865 14 122.37 13.5055 121.604 13.5055" fill="#FEFDFC"/>
<path d="M125.255 11.3261H124.853C124.751 11.3261 124.666 11.2412 124.666 11.1394C124.666 11.0376 124.751 10.9528 124.853 10.9528H126.077C126.179 10.9528 126.264 11.0376 126.264 11.1394C126.264 11.2412 126.181 11.3261 126.077 11.3261H125.674V12.6279C125.674 12.7418 125.578 12.8364 125.464 12.8364C125.35 12.8364 125.253 12.7418 125.253 12.6279V11.3261H125.255Z" fill="#FEFDFC"/>
<path d="M126.659 11.1345C126.659 11.0206 126.748 10.9309 126.862 10.9309H126.911C126.996 10.9309 127.061 10.9794 127.097 11.04L127.582 11.8376L128.079 11.04C128.12 10.9673 128.174 10.9309 128.259 10.9309H128.307C128.414 10.9309 128.506 11.0206 128.506 11.1345V12.64C128.506 12.7491 128.416 12.8388 128.307 12.8388C128.198 12.8388 128.108 12.7491 128.108 12.64V11.6752L127.75 12.2327C127.708 12.2982 127.66 12.3394 127.582 12.3394C127.505 12.3394 127.456 12.303 127.408 12.2327L127.054 11.6873V12.64C127.054 12.7491 126.964 12.8388 126.855 12.8388C126.746 12.8388 126.656 12.7491 126.656 12.64V11.1345H126.659Z" fill="#FEFDFC"/>
<path d="M8.22755 10.8024C7.43967 10.8024 6.79967 11.4424 6.79967 12.2303V18.9212C6.79967 19.5151 7.02997 20.0702 7.44937 20.4896C7.86876 20.909 8.42634 21.1393 9.01785 21.1393C9.60937 21.1393 10.1669 20.909 10.5863 20.4896L16.4869 14.589C16.9063 14.1696 17.1366 13.6121 17.1366 13.0206C17.1366 12.429 16.9063 11.8715 16.4869 11.4496C16.0675 11.0302 15.51 10.7999 14.9185 10.7999H8.22755V10.8024ZM9.01785 22.4024C8.08937 22.4024 7.21421 22.0412 6.55724 21.3842C5.90027 20.7272 5.53906 19.8521 5.53906 18.9236V12.2327C5.53906 10.7515 6.74391 9.54419 8.22755 9.54419H14.9185C15.8469 9.54419 16.7221 9.9054 17.3791 10.5648C18.036 11.2218 18.3972 12.0945 18.3972 13.0254C18.3972 13.9563 18.036 14.829 17.3791 15.486L11.4785 21.3866C10.8215 22.0436 9.94876 22.4048 9.01785 22.4048" fill="#FEFDFC"/>
<path d="M3.40121 14.6982C3.05212 14.6982 2.77091 14.417 2.77091 14.0679V12.2303C2.77091 9.21939 5.21939 6.77091 8.2303 6.77091H14.8339C15.6461 6.77091 16.4412 6.92121 17.2024 7.21697C17.5273 7.34303 17.6873 7.70667 17.5612 8.03152C17.4352 8.35636 17.0715 8.51636 16.7467 8.3903C16.143 8.15515 15.4812 8.03152 14.8364 8.03152H8.23273C5.91758 8.03152 4.03394 9.91515 4.03394 12.2303V14.0679C4.03394 14.4145 3.75273 14.6982 3.40364 14.6982M16.943 19.5321C16.7782 19.5321 16.6158 19.4691 16.4921 19.3406C16.2497 19.0909 16.2545 18.6933 16.5042 18.4509L18.4606 16.5455C20.143 14.863 20.3976 12.2036 19.0618 10.2279C18.8655 9.93939 18.943 9.54909 19.2315 9.35273C19.52 9.15636 19.9127 9.23394 20.1067 9.52242C21.7818 11.9976 21.4618 15.3285 19.3479 17.4424L17.3867 19.3527C17.263 19.4715 17.1055 19.5321 16.9479 19.5321M1.71636 23.6873C1.49576 23.6873 1.28242 23.5733 1.16848 23.3673C1.10061 23.2485 1.03758 23.1297 0.974545 23.0085C0.739394 22.5479 0.54303 22.063 0.392727 21.5661C0.232727 21.0448 0.14303 20.4752 0.113939 19.8303L0 17.1952V12.2303C0 7.69212 3.69212 4 8.2303 4H9.7697C10.1164 4 10.4 4.28121 10.4 4.6303C10.4 4.97939 10.1188 5.26061 9.7697 5.26061H8.2303C4.38788 5.26061 1.26061 8.38788 1.26061 12.2303V17.1685L1.37212 19.777C1.39394 20.3152 1.46909 20.7806 1.59758 21.2C1.72848 21.6267 1.89576 22.0412 2.09697 22.4388C2.1503 22.543 2.20606 22.6473 2.26424 22.7491C2.43636 23.0521 2.3297 23.4352 2.02667 23.6073C1.92727 23.663 1.82303 23.6897 1.71636 23.6897M9.02303 25.1733C7.35273 25.1733 5.78424 24.5236 4.60364 23.343C3.42303 22.1624 2.77333 20.5939 2.77333 18.9236V17.3648C2.77333 17.0182 3.05455 16.7345 3.40364 16.7345C3.75273 16.7345 4.03394 17.0158 4.03394 17.3648V18.9236C4.03394 20.257 4.55273 21.5103 5.49576 22.4533C6.43879 23.3939 7.6897 23.9127 9.02545 23.9127C10.3612 23.9127 11.6121 23.3939 12.5552 22.4533L14.1842 20.8242C14.4291 20.577 14.8291 20.577 15.0739 20.8242C15.3188 21.0691 15.3188 21.4691 15.0739 21.7139L13.4448 23.343C12.2667 24.5236 10.6958 25.1733 9.02545 25.1733M9.04485 27.9467C8.43394 27.9467 7.81576 27.8861 7.19273 27.7648C6.06788 27.5442 4.97212 27.0861 4.02182 26.4388C3.89576 26.3539 3.78909 26.2618 3.68242 26.1697C3.63152 26.1261 3.58303 26.0824 3.52727 26.0412C3.25333 25.8255 3.20485 25.4303 3.42061 25.1564C3.63636 24.8824 4.03152 24.8339 4.30545 25.0497C4.37576 25.1055 4.44121 25.1612 4.50667 25.217C4.57697 25.2776 4.64727 25.3406 4.7297 25.3964C5.54182 25.9491 6.47515 26.3394 7.43515 26.5285C10.0727 27.0473 12.6521 26.2764 14.5139 24.4121L20.2521 18.6739C21.7673 17.1588 22.6303 15.2242 22.6812 13.2315C22.7394 10.9867 21.8715 8.90424 20.24 7.36727C18.7976 6.0097 16.8291 5.26303 14.6958 5.26303H13.0739C12.7273 5.26303 12.4436 4.98182 12.4436 4.63273C12.4436 4.28364 12.7248 4.00242 13.0739 4.00242H14.6958C17.1491 4.00242 19.4255 4.87273 21.103 6.44848C23.0012 8.23515 24.0073 10.6545 23.9418 13.263C23.8812 15.5806 22.8873 17.8182 21.1418 19.5636L15.4036 25.3018C13.68 27.0255 11.4303 27.9442 9.04242 27.9442" fill="#FEFDFC"/>
</g>
</g>
</g>
</g>
<defs>
<clipPath id="clip0_231_37778">
<rect width="128.727" height="32" fill="white"/>
</clipPath>
<clipPath id="clip1_231_37778">
<rect width="128.727" height="24" fill="white" transform="translate(0 4)"/>
</clipPath>
</defs>
</svg>
